<mxfile host="app.diagrams.net" agent="Mozilla/5.0 (Windows NT 10.0; Win64; x64) AppleWebKit/537.36 (KHTML, like Gecko) Chrome/140.0.0.0 Safari/537.36" version="28.2.0">
  <diagram name="Page-1" id="yCcgdF2ZMj4vPDHFg7AX">
    <mxGraphModel dx="1042" dy="534" grid="1" gridSize="10" guides="1" tooltips="1" connect="1" arrows="1" fold="1" page="1" pageScale="1" pageWidth="850" pageHeight="1100" math="0" shadow="0">
      <root>
        <mxCell id="0" />
        <mxCell id="1" parent="0" />
        <mxCell id="kH0jVnUFbsQ16XGK4Owe-7" value="" style="edgeStyle=orthogonalEdgeStyle;rounded=0;orthogonalLoop=1;jettySize=auto;html=1;shape=flexArrow;fillColor=light-dark(#000000,#000000);" edge="1" parent="1" source="kH0jVnUFbsQ16XGK4Owe-1" target="kH0jVnUFbsQ16XGK4Owe-2">
          <mxGeometry relative="1" as="geometry" />
        </mxCell>
        <mxCell id="kH0jVnUFbsQ16XGK4Owe-1" value="RAW SIGNAL" style="rounded=0;whiteSpace=wrap;html=1;textDirection=vertical-rl;labelPosition=center;verticalLabelPosition=middle;align=center;verticalAlign=middle;fontStyle=1;fontSize=14;" vertex="1" parent="1">
          <mxGeometry x="20" y="170" width="60" height="230" as="geometry" />
        </mxCell>
        <mxCell id="kH0jVnUFbsQ16XGK4Owe-8" value="" style="edgeStyle=orthogonalEdgeStyle;rounded=0;orthogonalLoop=1;jettySize=auto;html=1;shape=flexArrow;fillColor=light-dark(#000000,#000000);" edge="1" parent="1" source="kH0jVnUFbsQ16XGK4Owe-2" target="kH0jVnUFbsQ16XGK4Owe-3">
          <mxGeometry relative="1" as="geometry" />
        </mxCell>
        <mxCell id="kH0jVnUFbsQ16XGK4Owe-2" value="Pre-Processing step" style="rounded=0;whiteSpace=wrap;html=1;textDirection=vertical-rl;labelPosition=center;verticalLabelPosition=middle;align=center;verticalAlign=middle;fontStyle=1;fontSize=14;" vertex="1" parent="1">
          <mxGeometry x="130" y="170" width="60" height="230" as="geometry" />
        </mxCell>
        <mxCell id="kH0jVnUFbsQ16XGK4Owe-9" value="" style="edgeStyle=orthogonalEdgeStyle;rounded=0;orthogonalLoop=1;jettySize=auto;html=1;shape=flexArrow;fillColor=light-dark(#000000,#000000);" edge="1" parent="1" source="kH0jVnUFbsQ16XGK4Owe-3" target="kH0jVnUFbsQ16XGK4Owe-4">
          <mxGeometry relative="1" as="geometry" />
        </mxCell>
        <mxCell id="kH0jVnUFbsQ16XGK4Owe-3" value="Feature Extraction" style="rounded=0;whiteSpace=wrap;html=1;textDirection=vertical-rl;labelPosition=center;verticalLabelPosition=middle;align=center;verticalAlign=middle;fontStyle=1;fontSize=14;" vertex="1" parent="1">
          <mxGeometry x="240" y="170" width="60" height="230" as="geometry" />
        </mxCell>
        <mxCell id="kH0jVnUFbsQ16XGK4Owe-10" value="" style="edgeStyle=orthogonalEdgeStyle;rounded=0;orthogonalLoop=1;jettySize=auto;html=1;shape=flexArrow;fillColor=light-dark(#000000,#000000);" edge="1" parent="1" source="kH0jVnUFbsQ16XGK4Owe-4" target="kH0jVnUFbsQ16XGK4Owe-5">
          <mxGeometry relative="1" as="geometry" />
        </mxCell>
        <mxCell id="kH0jVnUFbsQ16XGK4Owe-4" value="Feature Selection" style="rounded=0;whiteSpace=wrap;html=1;textDirection=vertical-rl;labelPosition=center;verticalLabelPosition=middle;align=center;verticalAlign=middle;fontStyle=1;fontSize=14;" vertex="1" parent="1">
          <mxGeometry x="350" y="170" width="60" height="230" as="geometry" />
        </mxCell>
        <mxCell id="kH0jVnUFbsQ16XGK4Owe-11" value="" style="edgeStyle=orthogonalEdgeStyle;rounded=0;orthogonalLoop=1;jettySize=auto;html=1;shape=flexArrow;fillColor=light-dark(#000000,#000000);" edge="1" parent="1" source="kH0jVnUFbsQ16XGK4Owe-5" target="kH0jVnUFbsQ16XGK4Owe-6">
          <mxGeometry relative="1" as="geometry" />
        </mxCell>
        <mxCell id="kH0jVnUFbsQ16XGK4Owe-5" value="Classification" style="rounded=0;whiteSpace=wrap;html=1;textDirection=vertical-rl;labelPosition=center;verticalLabelPosition=middle;align=center;verticalAlign=middle;fontStyle=1;fontSize=14;" vertex="1" parent="1">
          <mxGeometry x="460" y="170" width="60" height="230" as="geometry" />
        </mxCell>
        <mxCell id="kH0jVnUFbsQ16XGK4Owe-6" value="Testing" style="rounded=0;whiteSpace=wrap;html=1;textDirection=vertical-rl;labelPosition=center;verticalLabelPosition=middle;align=center;verticalAlign=middle;fontStyle=1;fontSize=14;" vertex="1" parent="1">
          <mxGeometry x="570" y="170" width="60" height="230" as="geometry" />
        </mxCell>
      </root>
    </mxGraphModel>
  </diagram>
</mxfile>
